<svg xmlns="http://www.w3.org/2000/svg" width="1200" height="448" viewBox="0 0 1200 448" fill="none">
<g clip-path="url(#clip0)">
<path d="M171.229 258.085L190.266 195.395L201.528 235.56L212.99 209.747L229.036 254.497C229.136 254.497 185.282 249.015 171.229 258.085Z" fill="#58CA68"/>
<path d="M805.614 294.762H900.697V383.765H1152.26V402.602C1141.2 402.602 1141.4 411.073 1130.33 411.073C1119.27 411.073 1119.27 403.299 1108.21 403.299C1097.14 403.299 1097.14 411.073 1086.08 411.073C1075.02 411.073 1075.02 403.299 1063.95 403.299C1052.89 403.299 1052.89 411.073 1041.83 411.073C1030.76 411.073 1030.76 403.299 1019.7 403.299C1008.64 403.299 1008.64 411.073 997.575 411.073C986.511 411.073 986.511 403.299 975.448 403.299C964.385 403.299 964.385 411.073 953.322 411.073C942.259 411.073 942.259 403.299 931.196 403.299C920.133 403.299 920.133 411.073 909.07 411.073C898.006 411.073 898.006 403.299 886.943 403.299C875.88 403.299 875.88 411.073 864.817 411.073C853.754 411.073 853.754 403.299 842.691 403.299C831.628 403.299 831.628 411.073 820.565 411.073C809.501 411.073 809.501 403.299 798.438 403.299C787.375 403.299 787.375 411.073 776.312 411.073C765.249 411.073 765.249 403.299 754.186 403.299C743.123 403.299 743.123 411.073 732.06 411.073C720.996 411.073 720.996 403.299 709.933 403.299C705.747 403.299 701.96 408.183 700.963 405.791C694.385 389.346 683.521 390.343 683.521 390.343C679.335 369.512 662.492 381.373 662.492 381.373C642.658 358.15 629.302 383.765 629.302 383.765C612.458 376.09 603.987 396.522 603.987 396.522C595.714 396.622 589.734 407.286 589.734 407.286C586.943 405.293 584.153 403.399 578.671 403.399C567.608 403.399 567.608 411.173 556.545 411.173C545.482 411.173 545.482 403.399 534.418 403.399C523.355 403.399 523.355 411.173 512.292 411.173C501.229 411.173 501.229 403.399 490.166 403.399C479.103 403.399 479.103 411.173 468.04 411.173C456.977 411.173 456.977 403.399 445.913 403.399C434.85 403.399 434.85 411.173 423.787 411.173C412.724 411.173 412.724 403.399 401.661 403.399C390.598 403.399 390.598 411.173 379.535 411.173C368.472 411.173 368.472 403.399 357.409 403.399C346.345 403.399 346.345 411.173 335.282 411.173C324.219 411.173 324.219 403.399 313.156 403.399C302.093 403.399 302.093 411.173 291.03 411.173C279.967 411.173 279.967 403.399 268.904 403.399C257.84 403.399 257.84 411.173 246.777 411.173C235.714 411.173 235.714 403.399 224.651 403.399C213.588 403.399 213.588 411.173 202.525 411.173C191.462 411.173 191.462 403.399 180.399 403.399C169.335 403.399 169.335 411.173 158.272 411.173C147.209 411.173 147.209 403.399 136.146 403.399C125.083 403.399 125.083 411.173 114.02 411.173C102.957 411.173 102.957 403.399 91.8936 403.399C80.8305 403.399 80.8305 411.173 69.7674 411.173C58.7042 411.173 58.7042 403.399 47.6411 403.399V382.569C47.6411 356.057 69.0697 334.629 95.5813 334.629H143.521V300.643C143.521 274.131 164.95 254.696 191.462 254.696H311.362H762.757C786.179 254.696 805.216 271.44 805.614 294.762Z" fill="#F7CD4B"/>
<path d="M259.036 292.57C259.036 300.842 252.259 307.619 243.987 307.619C235.714 307.619 228.937 300.842 228.937 292.57C228.937 284.298 235.714 277.52 243.987 277.52C252.259 277.52 259.036 284.298 259.036 292.57Z" fill="#FFC233"/>
<path d="M249.369 301.938H237.209V320.078H249.369V301.938Z" fill="#FFC233"/>
<path d="M234.219 299.746C234.219 302.836 231.728 305.327 228.638 305.327C225.548 305.327 223.057 302.836 223.057 299.746C223.057 296.657 225.548 294.165 228.638 294.165C231.728 294.165 234.219 296.657 234.219 299.746Z" fill="#FFC233"/>
<path d="M216.479 345.991C216.08 347.885 216.778 350.177 218.572 350.975C219.07 351.174 219.668 351.274 220.067 351.573C221.063 352.27 221.263 353.566 221.661 354.762C222.359 356.855 223.854 358.549 225.847 359.446C226.844 359.945 228.04 360.144 229.037 359.646C229.934 359.147 230.432 358.25 230.731 357.353C231.628 354.463 230.731 351.174 229.037 348.682C227.342 346.091 224.95 344.197 222.558 342.204C219.369 339.513 217.176 342.503 216.479 345.991Z" fill="#FFC233"/>
<path d="M295.116 322.072C297.01 321.773 299.103 320.676 299.601 318.882C300 317.387 299.402 315.892 299.203 314.397C298.904 312.603 303.289 305.128 299.302 306.125C298.505 306.324 296.711 303.932 296.013 304.331C294.618 305.028 293.821 309.912 292.625 310.61C291.429 311.307 290.233 311.706 289.934 313.101C289.734 313.799 289.136 322.969 295.116 322.072Z" fill="#FFC233"/>
<path d="M310.565 313.4C310.864 313.699 311.163 313.998 311.263 314.297C311.462 314.895 311.263 315.593 311.163 316.191C310.964 317.985 312.558 319.679 314.253 319.878C316.047 320.078 317.84 318.981 318.538 317.287C319.136 315.892 319.036 314.496 319.236 313.001C319.435 311.606 320.332 310.211 320.432 308.815C320.531 307.021 319.236 306.025 317.541 305.626C313.954 304.928 307.077 309.214 310.565 313.4Z" fill="#FFC233"/>
<path d="M585.249 388.948C585.249 391.539 583.156 393.632 580.565 393.632C577.974 393.632 575.881 391.539 575.881 388.948C575.881 386.357 577.974 384.264 580.565 384.264C583.156 384.264 585.249 386.257 585.249 388.948Z" fill="#FFC233"/>
<path d="M704.353 374.496C704.353 377.088 702.259 379.181 699.668 379.181C697.076 379.181 694.983 377.088 694.983 374.496C694.983 371.905 697.076 369.812 699.668 369.812C702.16 369.812 704.353 371.905 704.353 374.496Z" fill="#FFC233"/>
<path d="M249.369 314.098V323.367L252.658 328.151C252.658 328.151 250.366 331.939 252.658 338.118C252.658 338.118 251.861 344.397 254.253 346.988L251.861 351.971L271.794 352.37L268.605 346.988L266.711 335.128L264.718 326.557L265.814 319.68C265.814 319.58 261.528 310.909 249.369 314.098Z" fill="#FF7D52"/>
<path d="M222.16 319.58C222.16 319.58 219.07 323.865 223.755 328.45L223.156 340.111L228.937 346.291L231.03 351.972L240.299 352.968L237.11 346.988C237.11 346.988 240.897 345.792 238.705 337.121C238.705 337.121 240.299 331.739 237.11 329.148C237.11 329.148 246.08 320.377 233.721 315.493C233.821 315.493 224.751 316.689 222.16 319.58Z" fill="#FF7D52"/>
<path d="M300.199 311.407L300.996 323.367H313.356L314.651 320.576L310.664 317.387L310.864 308.117L302.093 308.516L300.199 311.407Z" fill="#FFE071"/>
<path d="M224.053 292.57L255.449 280.709L256.346 276.523L271.794 271.739C271.794 271.739 266.612 265.36 248.771 272.736C248.771 272.736 220.964 262.47 224.053 292.57Z" fill="#00ACFF"/>
<path d="M310.863 241.241C310.863 214.43 332.591 192.703 359.402 192.703H387.608C387.608 192.703 388.505 187.62 399.767 185.926H429.966L521.561 93.8333L569.501 141.972L681.827 49.9797L803.023 151.541L830.631 127.72L875.781 172.471L796.345 219.015L804.817 295.26H507.01L465.149 270.742H349.634V270.643C349.634 261.573 342.259 254.098 333.089 254.098H310.863V241.241Z" fill="#EDBF3E"/>
<path d="M765.05 78.7833C771.827 78.0857 778.306 74.996 782.89 69.1156C786.379 70.3116 790.067 68.2186 790.964 64.6306C791.761 61.1423 789.568 57.6539 785.98 57.0559C781.993 34.6308 750.299 27.1558 736.744 45.4945C733.256 44.3982 729.668 46.5909 728.87 49.9795C728.073 53.5676 730.465 57.0559 734.053 57.5543C735.947 66.8233 742.625 73.501 750.698 76.6903C750.698 76.6903 730.465 72.2053 718.206 78.6837L728.671 89.0491L739.734 97.7201L746.213 90.9427C746.213 90.9427 750.498 96.3248 755.482 96.4244L754.684 110.876C754.684 110.876 766.146 119.846 765.847 118.85C765.548 117.953 767.243 99.9128 759.668 94.7301L762.259 87.3547C762.259 87.3547 789.07 97.6204 795.05 84.7634C795.05 84.7634 794.651 77.7867 786.479 79.5807C786.479 79.5807 772.226 83.966 764.95 81.3747L765.05 78.7833ZM767.542 72.7037C763.256 69.614 754.385 68.717 750.498 70.4113C749.701 63.5343 746.312 61.1423 739.535 59.9463C743.023 57.4546 743.223 50.2785 742.724 46.1922C748.106 47.6872 753.488 45.6939 758.97 40.1125C761.661 45.7935 770.93 49.6805 777.11 48.6839C776.013 49.5809 773.223 59.0493 778.505 62.4379C771.827 62.4379 767.442 65.8266 767.542 72.7037Z" fill="#FFC233"/>
<path d="M577.375 149.747H612.956C617.741 149.747 621.628 153.634 621.628 158.418H645.448C650.232 158.418 654.12 162.305 654.12 167.089V182.637C654.12 182.637 622.525 167.786 593.222 168.783L577.375 149.747Z" fill="#39B54A"/>
<path d="M1095.55 382.271V329.347C1095.55 323.068 1090.46 317.985 1084.18 317.985V308.317C1084.18 301.042 1078.3 295.161 1071.03 295.161H1068.34V286.291C1068.34 282.204 1065.05 278.915 1060.96 278.915H1042.22V264.763C1042.22 258.284 1037.04 253.102 1030.56 253.102H1023.39V247.121C1023.39 240.643 1018.2 235.46 1011.73 235.46H986.809V228.583C986.809 222.105 981.627 216.922 975.148 216.922H961.195V214.132C961.195 207.653 956.012 202.47 949.534 202.47H926.71L918.437 190.809H791.86C786.777 190.809 782.691 194.896 782.691 199.979V204.962H775.415C770.332 204.962 766.245 209.048 766.245 214.132V224.098H750.797V220.61C750.797 215.527 746.711 211.44 741.628 211.44H688.505L697.575 228.783C697.575 228.783 721.395 228.982 722.99 252.703H767.043C787.574 252.703 804.119 269.347 804.119 289.779V295.361H892.325L911.66 267.952H976.245L977.042 253.4L1010.03 253.301V268.749H1018.4L1095.55 382.271Z" fill="#39B54A"/>
<path d="M339.569 199.182C339.569 199.182 332.492 192.205 320.532 191.707C320.532 191.707 319.735 166.491 296.711 176.856L244.685 208.152V223.6C244.685 223.6 225.947 220.411 229.136 237.653C229.136 237.653 214.685 236.557 216.578 253.5L310.964 253.301C310.864 253.102 306.08 211.939 339.569 199.182Z" fill="#39B54A"/>
<path d="M144.419 289.48C144.419 289.48 129.768 288.782 128.372 305.227C128.372 305.227 113.821 302.138 111.827 317.785C111.827 317.785 90.897 316.191 90.9967 332.935H143.023L144.419 289.48Z" fill="#39B54A"/>
<path d="M1131.63 362.237C1131.63 358.649 1128.44 355.759 1124.45 355.958C1114.68 334.829 1078.9 334.53 1068.94 355.56C1064.95 355.36 1061.66 358.251 1061.66 361.739C1061.66 365.427 1065.05 368.317 1069.14 368.018C1079.2 388.45 1113.89 388.749 1124.25 368.417C1128.14 368.815 1131.63 365.925 1131.63 362.237Z" fill="#FFE071"/>
<path d="M726.279 87.4547C728.87 94.7304 714.717 93.634 712.026 94.83C701.761 99.4148 699.369 136.591 673.953 111.674C654.02 92.139 650.631 112.372 635.283 107.388C630.299 105.793 625.216 99.2154 627.01 94.3317L681.229 49.282L726.279 87.4547Z" fill="white"/>
<path d="M663.887 38.0197C673.555 22.7706 686.511 36.8237 696.678 24.2656L687.608 2.1394C677.442 14.6975 664.485 0.644392 654.817 15.8935" fill="#25252D"/>
<path d="M663.887 38.0197C673.555 22.7706 686.511 36.8237 696.678 24.2656L687.608 2.1394C677.442 14.6975 664.485 0.644393 654.817 15.8935" stroke="#25252D" stroke-width="3" stroke-miterlimit="10" stroke-linecap="round" stroke-linejoin="round"/>
<path d="M830.731 127.72L796.545 160.81C796.545 160.81 801.628 173.567 818.671 158.019C818.671 158.019 823.954 146.756 840.797 153.135C840.797 153.135 849.668 158.517 851.96 149.747L830.731 127.72Z" fill="white"/>
<path d="M501.029 114.066C508.704 129.514 515.98 112.072 531.428 119.846C538.704 123.434 542.691 121.441 543.588 118.252L521.661 93.8333L501.029 114.066Z" fill="white"/>
<path d="M393.987 351.872H231.13L230.133 360.244L223.754 359.845L221.462 351.872H185.781V367.121H198.837L217.874 405.094C217.874 405.094 224.651 400.31 237.11 410.576C245.282 417.253 258.339 403.699 267.11 404.097C274.684 404.496 280.366 412.37 288.04 412.469C296.412 412.569 302.492 403.2 310.864 403.101C318.638 403.001 324.419 410.875 332.093 411.772C337.276 412.37 342.259 409.679 347.043 407.486C351.827 405.194 357.309 403.3 362.193 405.293L385.415 367.121H393.987V351.872Z" fill="#FFE071"/>
<path d="M911.86 284.297L842.791 384.264L981.229 383.865L911.86 284.297Z" fill="#FFE071"/>
<path d="M920.232 318.384C920.232 323.267 916.246 327.154 911.462 327.154C906.579 327.154 902.692 323.167 902.692 318.384C902.692 313.6 906.678 309.613 911.462 309.613C916.346 309.513 920.232 313.5 920.232 318.384Z" fill="#00ACFF"/>
<path d="M911.661 338.417C903.687 338.417 897.209 344.895 897.209 352.868V384.363H926.013V352.769C926.113 344.795 919.634 338.417 911.661 338.417Z" fill="#FF9D14"/>
<path d="M1018.5 268.65L911.86 267.853L832.126 383.367L842.79 384.264L911.86 284.298L981.229 383.865L992.192 384.264L1095.55 382.27L1018.5 268.65Z" fill="#00ACFF"/>
<path d="M1008.94 311.606H988.107L977.243 297.553V254.098H1008.94V311.606Z" fill="#FFE071"/>
<path d="M733.755 151.541V156.424L759.071 182.737L770.732 170.777L752.293 152.737L733.755 151.541Z" fill="#FFC233"/>
<path d="M673.953 196.889L691.794 165.594L703.754 190.012L713.72 168.883L730.365 211.341H688.604L673.953 196.889Z" fill="#58CA68"/>
<path d="M723.389 253.899C723.489 240.344 711.13 229.181 695.98 229.879C658.804 149.547 522.658 148.451 484.385 228.484C469.036 227.587 456.677 238.65 456.677 252.105C456.578 266.058 469.634 277.321 484.983 276.025C523.256 353.965 655.316 354.862 694.685 277.42C710.034 278.915 723.289 267.952 723.389 253.899Z" fill="#FFE071"/>
<path d="M448.904 280.112C448.904 309.015 472.326 332.536 501.329 332.536C530.233 332.536 553.754 309.115 553.754 280.112H448.904Z" fill="#FFE071"/>
<path d="M464.851 280.112C464.851 300.244 481.196 316.59 501.329 316.59C521.462 316.59 537.807 300.244 537.807 280.112H464.851Z" fill="#FFC233"/>
<path d="M642.06 286.59C659.602 286.59 673.954 300.842 673.954 318.483V399.513H621.628V311.806C621.628 307.42 618.04 303.832 613.655 303.832H596.313V285.992L642.06 286.59Z" fill="#FFC233"/>
<path d="M725.283 340.809L740.632 308.217L760.864 361.24L774.319 327.553L785.382 362.835L801.23 317.885L816.778 357.054L829.934 317.885L847.076 362.835L832.425 383.367L752.891 385.061C752.692 385.061 750.599 350.576 725.283 340.809Z" fill="#58CA68"/>
<path d="M940.366 244.729C940.366 204.563 907.775 172.072 867.708 172.072C827.542 172.072 795.05 204.663 795.05 244.729H940.366Z" fill="#FFE071"/>
<path d="M918.239 244.729C918.239 216.723 895.615 194.098 867.608 194.098C839.602 194.098 816.978 216.723 816.978 244.729H918.239Z" fill="#FFC233"/>
<path d="M836.512 245.527V260.975L857.243 275.228V295.261H875.98V244.43H857.143V259.081H851.063C848.671 259.081 846.778 257.188 846.778 254.796V244.43L836.512 245.527Z" fill="#FF9D14"/>
<path d="M1078.9 207.554H1054.09L1045.41 181.74H1087.67L1078.9 207.554Z" fill="#FF7D52"/>
<path d="M941.861 244.729C941.861 204.663 909.369 172.172 869.302 172.172C829.236 172.172 796.744 204.663 796.744 244.729H941.861Z" fill="#FFE071"/>
<path d="M919.834 244.73C919.834 216.823 897.21 194.198 869.302 194.198C841.395 194.198 818.771 216.823 818.771 244.73H919.834Z" fill="#FFC233"/>
<path d="M257.841 252.404V208.052H272.791V220.61L279.468 217.52C284.252 215.228 285.249 223.6 280.465 225.892L272.791 229.58V252.404H257.841Z" fill="#FF9D14"/>
<path d="M307.376 206.955C307.376 183.434 288.339 164.298 264.718 164.298C241.097 164.298 222.06 183.334 222.06 206.955H307.376Z" fill="#FFE071"/>
<path d="M294.419 206.956C294.419 190.511 281.163 177.255 264.718 177.255C248.272 177.255 235.016 190.511 235.016 206.956H294.419Z" fill="#FFC233"/>
<path d="M460.366 270.244H349.635V256.191H456.18L460.366 270.244Z" fill="#FFC233"/>
<path d="M436.744 263.168C436.744 263.168 437.043 250.311 425.582 251.706C425.582 251.706 421.993 243.633 414.319 245.128C414.319 245.128 400.366 236.357 392.89 246.224C392.89 246.224 374.053 246.922 379.635 259.979L436.744 263.168Z" fill="#FFC233"/>
<path d="M407.641 258.584L338.073 350.776L352.226 351.872L415.216 264.265C415.316 264.265 414.518 255.893 407.641 258.584Z" fill="#FF9D14"/>
<path d="M506.212 158.617H494.252L463.953 185.826H399.768C396.379 185.826 393.189 187.321 390.997 190.012L390.698 190.411C388.605 192.903 387.508 196.092 387.508 199.381V246.224H392.89C392.89 246.224 400.964 234.663 414.319 245.128V198.883C414.319 196.291 416.412 194.198 418.904 194.198L470.432 193.6C474.618 193.501 478.704 191.906 481.794 188.916L506.113 165.494L506.212 158.617Z" fill="#FFC233"/>
<path d="M347.641 195.394L372.259 131.707L381.827 155.428L392.99 129.714L398.073 143.966L412.425 118.252L424.585 141.375L437.243 121.242L447.01 142.571L455.88 123.036L468.239 147.753L426.777 186.125L397.874 186.723C393.189 186.823 389.003 189.813 387.508 194.298L347.641 195.394Z" fill="#58CA68"/>
<path d="M451.894 164.697C440.332 143.169 408.638 143.767 399.568 164.896C395.88 164.697 392.89 167.587 392.89 171.175C392.89 174.863 396.08 177.753 399.767 177.454C401.561 181.441 405.05 185.228 408.339 187.122L429.967 186.125L451.894 164.697Z" fill="#FFE071"/>
<path d="M1109.1 132.405C1109.1 127.72 1105.12 123.833 1100.33 124.132C1088.37 96.3251 1044.92 96.2254 1032.86 124.132C1027.97 123.833 1024.09 127.72 1024.09 132.405C1024.09 137.288 1028.27 141.175 1033.16 140.677C1045.51 167.687 1087.67 167.687 1100.03 140.677C1104.92 141.175 1109.1 137.288 1109.1 132.405Z" fill="#FFE071"/>
<path d="M165.648 84.5642C164.95 80.8765 161.262 78.3848 157.475 79.3815C143.821 59.3484 109.734 65.8268 104.452 89.5476C100.565 90.0459 98.0731 93.7336 98.7707 97.4213C99.4684 101.209 103.355 103.601 107.143 102.504C120.897 121.84 153.987 115.461 159.668 92.4379C163.654 92.0392 166.345 88.3516 165.648 84.5642Z" fill="#FFE071"/>
<path d="M31.0964 211.042C36.5782 196.291 47.1429 200.278 50.432 200.477C60.7974 201.075 65.9801 188.318 72.9569 182.936C84.917 173.766 89.8007 185.726 93.4884 187.72C103.056 193.102 110.93 178.152 119.801 197.686C126.877 213.035 133.355 195.693 138.837 211.042H31.0964Z" fill="white"/>
<path d="M286.844 71.4082C295.714 53.1691 302.093 69.2155 315.648 56.0595C334.086 38.0197 339.07 51.2754 349.634 45.395C357.608 41.0097 369.369 21.8735 381.03 30.0463C388.306 35.1293 387.309 52.7704 408.239 43.1027C409.236 42.6044 410.332 42.3054 411.428 42.2057C419.103 41.7073 418.804 52.1724 423.688 56.7571C428.571 61.4415 436.744 58.5511 443.322 60.1458C448.604 61.4415 452.89 66.0262 453.787 71.4082H286.844Z" fill="white"/>
<path d="M883.853 78.5842H996.58C990.002 59.1491 978.041 75.5942 971.961 65.6274C956.313 40.3119 948.838 75.7935 937.276 67.1224C925.016 57.9531 914.053 69.1158 903.587 71.9065C894.816 74.0992 886.145 66.6241 883.853 78.5842Z" fill="white"/>
<path d="M1155.85 240.843C1159.53 244.73 1154.65 247.52 1170.7 246.424C1175.68 246.125 1177.28 250.51 1180.27 254.497H1135.61C1138.9 250.211 1147.87 232.271 1155.85 240.843Z" fill="white"/>
<path d="M507.01 160.112H484.684V157.421C484.684 151.242 489.668 146.258 495.847 146.258C502.027 146.258 507.01 151.242 507.01 157.421V160.112Z" fill="#25252D"/>
<path d="M754.983 151.939H732.658V145.959C732.658 139.78 737.641 134.796 743.82 134.796C750 134.796 754.983 139.78 754.983 145.959V151.939Z" fill="#25252D"/>
<path d="M620.033 252.803C606.977 252.803 596.412 263.367 596.412 276.424V285.992H643.654V276.424C643.654 263.467 633.09 252.803 620.033 252.803Z" fill="#25252D"/>
<path d="M218.771 322.071L206.312 333.732C206.312 333.732 191.96 351.373 214.684 352.47L220.266 341.008L223.355 340.111L221.462 321.573L218.771 322.071Z" fill="#25252D"/>
<path d="M239.601 319.58L240.399 352.968L253.156 352.271L248.571 318.483L239.601 319.58Z" fill="#25252D"/>
<path d="M267.807 317.187L289.934 311.406L293.323 321.573L268.903 335.028L265.016 324.264L267.807 317.187Z" fill="#25252D"/>
<path d="M684.518 14.6976C684.12 14.2989 683.223 13.7009 681.728 13.8006C679.834 12.0066 677.143 11.2093 674.352 11.9069C671.462 12.5049 669.369 14.4983 668.472 16.9899C666.379 18.186 665.781 19.8803 666.279 21.2756C666.678 22.4716 668.073 23.4683 670.067 23.269C671.462 24.5647 673.356 25.2623 675.349 25.2623C675.947 25.2623 676.645 25.1627 677.243 25.063C680.033 24.465 682.126 22.671 683.023 20.1793C684.02 19.681 684.817 18.784 685.116 17.7873C685.515 16.6909 685.216 15.4949 684.518 14.6976Z" fill="#FFE071"/>
<path d="M538.306 325.161C564.02 335.028 594.219 337.022 621.727 331.141" stroke="#25252D" stroke-width="3" stroke-linecap="round" stroke-linejoin="round"/>
<path d="M671.762 308.218C682.327 299.746 690.998 289.181 696.878 276.523C711.131 277.919 723.191 266.656 723.191 252.603C723.191 238.949 711.729 227.786 697.775 228.683C663.489 149.049 516.778 148.85 482.392 228.683C468.239 227.886 456.977 239.049 456.977 252.603C456.977 261.374 461.661 269.048 468.738 273.234" stroke="#25252D" stroke-width="3" stroke-linecap="round" stroke-linejoin="round"/>
<path d="M658.007 214.73C631.695 188.916 590.931 183.435 558.538 197.986" stroke="#25252D" stroke-width="3" stroke-linecap="round" stroke-linejoin="round"/>
<path d="M450.698 164.797C441.628 143.667 408.737 143.667 399.568 164.797C395.88 164.597 392.89 167.488 392.89 171.076C392.89 174.763 396.08 177.654 399.767 177.355C401.561 181.341 405.05 185.128 408.339 187.022" stroke="#25252D" stroke-width="3" stroke-linecap="round" stroke-linejoin="round"/>
<path d="M441.428 163.401C437.342 159.414 431.561 156.923 425.183 156.923C421.694 156.923 418.306 157.62 415.415 159.016" stroke="#25252D" stroke-width="3" stroke-linecap="round" stroke-linejoin="round"/>
<path d="M621.628 381.473V310.908C621.628 306.822 618.339 303.433 614.153 303.433H596.313V275.228C596.313 262.171 606.877 251.606 619.934 251.606C632.99 251.606 643.555 262.171 643.555 275.228V286.49" stroke="#25252D" stroke-width="3" stroke-miterlimit="10" stroke-linecap="round" stroke-linejoin="round"/>
<path d="M596.313 286.49H640.365C658.903 286.49 673.853 301.54 673.853 319.978V379.38" stroke="#25252D" stroke-width="3" stroke-miterlimit="10" stroke-linecap="round" stroke-linejoin="round"/>
<path d="M590.632 407.785C590.632 401.705 595.515 396.822 601.595 396.822C602.193 396.822 602.691 396.921 603.19 396.921C604.087 388.45 611.263 381.872 620.034 381.872C623.123 381.872 626.014 382.769 628.505 384.164C630.897 377.188 637.475 372.204 645.15 372.204C652.226 372.204 658.306 376.39 661.097 382.37C663.289 380.875 665.98 379.978 668.871 379.978C675.449 379.978 681.03 384.563 682.426 390.842C682.525 390.842 682.625 390.842 682.725 390.842C692.093 390.842 699.668 398.416 699.668 407.785" stroke="#25252D" stroke-width="3" stroke-miterlimit="10" stroke-linecap="round" stroke-linejoin="round"/>
<path d="M227.043 293.965C227.741 297.952 229.933 301.44 232.923 303.832C243.388 312.105 259.036 304.729 259.036 291.174C259.036 287.287 257.74 283.799 255.448 281.008" stroke="#25252D" stroke-width="3" stroke-miterlimit="10" stroke-linecap="round" stroke-linejoin="round"/>
<path d="M248.87 306.523V315.992C248.87 320.875 236.91 320.875 236.91 315.992V306.523" stroke="#25252D" stroke-width="3" stroke-miterlimit="10" stroke-linecap="round" stroke-linejoin="round"/>
<path d="M232.126 303.234C231.03 304.729 229.136 305.527 227.243 305.128C224.552 304.63 222.658 302.038 223.156 299.347C223.555 297.254 225.05 295.759 226.944 295.361" stroke="#25252D" stroke-width="3" stroke-miterlimit="10" stroke-linecap="round" stroke-linejoin="round"/>
<path d="M227.043 292.57L255.448 281.008C255.448 281.008 257.84 258.882 271.794 271.838L256.445 277.619" stroke="#25252D" stroke-width="3" stroke-miterlimit="10" stroke-linecap="round" stroke-linejoin="round"/>
<path d="M246.678 276.523C247.774 274.53 249.07 273.434 250.565 272.935L262.325 267.952" stroke="#25252D" stroke-width="3" stroke-miterlimit="10" stroke-linecap="round" stroke-linejoin="round"/>
<path d="M248.771 272.736C233.92 264.464 218.97 278.716 224.352 293.567" stroke="#25252D" stroke-width="3" stroke-miterlimit="10" stroke-linecap="round" stroke-linejoin="round"/>
<path d="M242.89 294.364C246.478 298.849 252.957 296.955 252.658 290.477" stroke="#25252D" stroke-width="3" stroke-miterlimit="10" stroke-linecap="round" stroke-linejoin="round"/>
<path d="M228.837 297.453C232.027 300.543 230.432 295.859 231.229 291.872L227.043 293.965L228.837 297.453Z" stroke="#25252D" stroke-width="3" stroke-miterlimit="10" stroke-linecap="round" stroke-linejoin="round"/>
<path d="M236.512 315.094C236.512 315.094 221.362 314.696 221.362 322.37C221.362 322.47 221.262 325.858 224.352 327.951C224.352 327.951 219.568 333.134 223.953 338.018C223.953 338.018 223.056 339.313 222.658 341.107" stroke="#25252D" stroke-width="3" stroke-miterlimit="10" stroke-linecap="round" stroke-linejoin="round"/>
<path d="M237.209 317.188C240.1 321.174 241.495 325.56 238.106 328.45C241.196 331.041 241.196 335.626 238.106 338.217C241.196 340.809 241.196 345.394 238.106 347.985C238.106 347.985 240.798 351.075 239.402 352.968" stroke="#25252D" stroke-width="3" stroke-miterlimit="10" stroke-linecap="round" stroke-linejoin="round"/>
<path d="M250.465 314.098C250.465 314.098 265.615 312.902 265.914 320.576C265.914 320.676 266.213 324.065 263.223 326.257C263.223 326.257 269.402 329.447 266.113 336.224C266.113 336.224 270.997 340.111 268.505 346.888C268.505 346.888 271.196 349.48 270.698 352.27" stroke="#25252D" stroke-width="3" stroke-miterlimit="10" stroke-linecap="round" stroke-linejoin="round"/>
<path d="M248.771 317.188C247.774 323.865 249.967 325.659 252.558 327.453C249.767 330.244 250.166 334.829 253.455 337.121C250.664 339.912 251.063 344.497 254.352 346.789C254.352 346.789 251.96 351.075 253.555 352.869" stroke="#25252D" stroke-width="3" stroke-miterlimit="10" stroke-linecap="round" stroke-linejoin="round"/>
<path d="M214.585 340.111C214.585 340.111 228.538 340.51 231.229 350.277V357.852C231.229 360.443 229.734 360.942 227.841 360.643C224.053 360.045 221.362 357.653 221.362 353.865V352.869H187.675V367.42H394.385V352.869H232.525" stroke="#25252D" stroke-width="3" stroke-miterlimit="10" stroke-linecap="round" stroke-linejoin="round"/>
<path d="M688.605 411.672C699.668 411.672 699.668 403.898 710.731 403.898C721.794 403.898 721.794 411.672 732.857 411.672C743.92 411.672 743.92 403.898 754.983 403.898C766.047 403.898 766.047 411.672 777.11 411.672C788.173 411.672 788.173 403.898 799.236 403.898C810.299 403.898 810.299 411.672 821.362 411.672C832.425 411.672 832.425 403.898 843.488 403.898C854.551 403.898 854.551 411.672 865.615 411.672C876.678 411.672 876.678 403.898 887.741 403.898C898.804 403.898 898.804 411.672 909.867 411.672C920.93 411.672 920.93 403.898 931.993 403.898C943.056 403.898 943.056 411.672 954.12 411.672C965.183 411.672 965.183 403.898 976.246 403.898C987.309 403.898 987.309 411.672 998.372 411.672C1009.44 411.672 1009.44 403.898 1020.5 403.898C1031.56 403.898 1031.56 411.672 1042.62 411.672C1053.69 411.672 1053.69 403.898 1064.75 403.898C1075.81 403.898 1075.81 411.672 1086.88 411.672C1097.94 411.672 1097.94 403.898 1109 403.898C1120.07 403.898 1120.07 411.672 1131.13 411.672C1142.19 411.672 1142.19 403.898 1153.26 403.898C1164.32 403.898 1164.32 411.672 1175.38 411.672C1186.45 411.672 1186.45 403.898 1197.51 403.898" stroke="#25252D" stroke-width="3" stroke-miterlimit="10" stroke-linecap="round" stroke-linejoin="round"/>
<path d="M1.99341 403.898C13.0565 403.898 13.0565 411.672 24.1197 411.672C35.1828 411.672 35.1828 403.898 46.2459 403.898C57.309 403.898 57.309 411.672 68.3722 411.672C79.4353 411.672 79.4353 403.898 90.4984 403.898C101.562 403.898 101.562 411.672 112.625 411.672C123.688 411.672 123.688 403.898 134.751 403.898C145.814 403.898 145.814 411.672 156.877 411.672C167.94 411.672 167.94 403.898 179.003 403.898C190.067 403.898 190.067 411.672 201.13 411.672C212.193 411.672 212.193 403.898 223.256 403.898C234.319 403.898 234.319 411.672 245.382 411.672C256.445 411.672 256.445 403.898 267.508 403.898C278.572 403.898 278.572 411.672 289.635 411.672C300.698 411.672 300.698 403.898 311.761 403.898C322.824 403.898 322.824 411.672 333.887 411.672C344.95 411.672 344.95 403.898 356.013 403.898C367.077 403.898 367.077 411.672 378.14 411.672C389.203 411.672 389.203 403.898 400.266 403.898C411.329 403.898 411.329 411.672 422.392 411.672C433.455 411.672 433.455 403.898 444.518 403.898C455.582 403.898 455.582 411.672 466.645 411.672C477.708 411.672 477.708 403.898 488.771 403.898C499.834 403.898 499.834 411.672 510.897 411.672C521.96 411.672 521.96 403.898 533.023 403.898C544.087 403.898 544.087 411.672 555.15 411.672C566.213 411.672 566.213 403.898 577.276 403.898C588.339 403.898 588.339 411.672 599.402 411.672" stroke="#25252D" stroke-width="3" stroke-miterlimit="10" stroke-linecap="round" stroke-linejoin="round"/>
<path d="M221.462 321.174C221.462 321.174 205.216 326.257 202.325 344.696C201.628 349.081 205.116 352.968 209.501 352.968" stroke="#25252D" stroke-width="3" stroke-miterlimit="10" stroke-linecap="round" stroke-linejoin="round"/>
<path d="M216.479 352.968L219.469 340.809" stroke="#25252D" stroke-width="3" stroke-miterlimit="10" stroke-linecap="round" stroke-linejoin="round"/>
<path d="M265.316 317.188L293.322 310.411" stroke="#25252D" stroke-width="3" stroke-miterlimit="10" stroke-linecap="round" stroke-linejoin="round"/>
<path d="M267.807 334.231L298.704 320.776" stroke="#25252D" stroke-width="3" stroke-miterlimit="10" stroke-linecap="round" stroke-linejoin="round"/>
<path d="M297.707 304.53L296.711 298.251H318.239L317.143 305.626" stroke="#25252D" stroke-width="3" stroke-miterlimit="10" stroke-linecap="round" stroke-linejoin="round"/>
<path d="M314.651 320.576L314.253 323.466H300.698L299.302 313.4" stroke="#25252D" stroke-width="3" stroke-miterlimit="10" stroke-linecap="round" stroke-linejoin="round"/>
<path d="M294.817 311.706C296.412 314.098 300.598 313.201 300.498 310.012C300.299 301.241 290.831 305.526 294.817 311.706Z" stroke="#25252D" stroke-width="3" stroke-miterlimit="10" stroke-linecap="round" stroke-linejoin="round"/>
<path d="M311.163 313.599C311.063 315.294 308.97 317.287 314.153 319.579C315.847 320.377 317.043 320.476 318.638 318.184C319.435 316.988 318.538 314.397 318.937 312.902C319.236 311.606 322.824 308.815 317.841 306.124C314.551 304.33 311.163 308.417 310.764 310.211C310.465 311.307 311.262 312.403 311.163 313.599Z" stroke="#25252D" stroke-width="3" stroke-miterlimit="10" stroke-linecap="round" stroke-linejoin="round"/>
<path d="M289.236 311.406L293.023 323.367" stroke="#25252D" stroke-width="3" stroke-miterlimit="10" stroke-linecap="round" stroke-linejoin="round"/>
<path d="M301.495 308.317C302.891 307.52 304.585 307.819 306.18 308.118C307.774 308.417 309.369 308.815 310.864 308.317" stroke="#25252D" stroke-width="3" stroke-miterlimit="10" stroke-linecap="round" stroke-linejoin="round"/>
<path d="M217.575 403.799L197.641 367.519H384.419L363.688 405.094" stroke="#25252D" stroke-width="3" stroke-miterlimit="10" stroke-linecap="round" stroke-linejoin="round"/>
<path d="M197.641 367.519H384.419" stroke="#25252D" stroke-width="3" stroke-miterlimit="10" stroke-linecap="round" stroke-linejoin="round"/>
<path d="M205.814 379.579H335.681" stroke="#25252D" stroke-width="3" stroke-miterlimit="10" stroke-linecap="round" stroke-linejoin="round"/>
<path d="M236.013 394.729H368.073" stroke="#25252D" stroke-width="3" stroke-miterlimit="10" stroke-linecap="round" stroke-linejoin="round"/>
<path d="M580.565 393.632C583.152 393.632 585.249 391.535 585.249 388.948C585.249 386.361 583.152 384.264 580.565 384.264C577.978 384.264 575.881 386.361 575.881 388.948C575.881 391.535 577.978 393.632 580.565 393.632Z" stroke="#25252D" stroke-width="3" stroke-miterlimit="10" stroke-linecap="round" stroke-linejoin="round"/>
<path d="M699.568 377.885C701.44 377.885 702.957 376.368 702.957 374.496C702.957 372.625 701.44 371.108 699.568 371.108C697.697 371.108 696.18 372.625 696.18 374.496C696.18 376.368 697.697 377.885 699.568 377.885Z" stroke="#25252D" stroke-width="3" stroke-miterlimit="10" stroke-linecap="round" stroke-linejoin="round"/>
<path d="M338.073 352.47L405.648 260.078C408.937 255.593 417.907 262.171 414.618 266.656L351.827 352.47" stroke="#25252D" stroke-width="3" stroke-miterlimit="10" stroke-linecap="round" stroke-linejoin="round"/>
<path d="M482.591 404.098L410.133 272.736L395.98 265.959L406.445 281.108L390.897 273.135" stroke="#25252D" stroke-width="3" stroke-miterlimit="10" stroke-linecap="round" stroke-linejoin="round"/>
<path d="M596.213 334.43H456.878" stroke="#25252D" stroke-width="3" stroke-miterlimit="10" stroke-linecap="round" stroke-linejoin="round"/>
<path d="M685.914 334.43H700.764C728.272 334.43 750.598 356.755 750.598 384.264V402.702" stroke="#25252D" stroke-width="3" stroke-miterlimit="10" stroke-linecap="round" stroke-linejoin="round"/>
<path d="M142.923 326.456V302.935C142.923 275.427 165.249 253.101 192.757 253.101H337.874C344.352 253.101 349.535 258.383 349.535 264.762V269.446H386.312" stroke="#25252D" stroke-width="3" stroke-miterlimit="10" stroke-linecap="round" stroke-linejoin="round"/>
<path d="M733.156 253.101H765.349C787.276 253.101 805.116 270.842 805.116 292.869V295.261" stroke="#25252D" stroke-width="3" stroke-miterlimit="10" stroke-linecap="round" stroke-linejoin="round"/>
<path d="M195.05 334.43H97.0763C69.568 334.43 47.2424 356.755 47.2424 384.264V393.832" stroke="#25252D" stroke-width="3" stroke-miterlimit="10" stroke-linecap="round" stroke-linejoin="round"/>
<path d="M750.599 384.264H1125.75C1137.91 384.264 1148.17 392.137 1151.76 403.101" stroke="#25252D" stroke-width="3" stroke-miterlimit="10" stroke-linecap="round" stroke-linejoin="round"/>
<path d="M892.525 295.26H696.578" stroke="#25252D" stroke-width="3" stroke-miterlimit="10" stroke-linecap="round" stroke-linejoin="round"/>
<path d="M310.863 252.105V243.434C310.863 215.926 333.189 193.6 360.697 193.6H379.734" stroke="#25252D" stroke-width="3" stroke-miterlimit="10" stroke-linecap="round" stroke-linejoin="round"/>
<path d="M842.791 384.264L912.06 283.999L981.229 384.264H842.791Z" stroke="#25252D" stroke-width="3" stroke-miterlimit="10" stroke-linecap="round" stroke-linejoin="round"/>
<path d="M911.861 267.853L992.193 384.264H831.528L911.861 267.853Z" stroke="#25252D" stroke-width="3" stroke-miterlimit="10" stroke-linecap="round" stroke-linejoin="round"/>
<path d="M1018.51 268.649L1098.34 384.263H979.436" stroke="#25252D" stroke-width="3" stroke-miterlimit="10" stroke-linecap="round" stroke-linejoin="round"/>
<path d="M1010.23 268.649H1018.5" stroke="#25252D" stroke-width="3" stroke-miterlimit="10" stroke-linecap="round" stroke-linejoin="round"/>
<path d="M913.156 267.853H976.445" stroke="#25252D" stroke-width="3" stroke-miterlimit="10" stroke-linecap="round" stroke-linejoin="round"/>
<path d="M1010.23 283.101H1028.47" stroke="#25252D" stroke-width="3" stroke-miterlimit="10" stroke-linecap="round" stroke-linejoin="round"/>
<path d="M923.123 283.101H976.444" stroke="#25252D" stroke-width="3" stroke-miterlimit="10" stroke-linecap="round" stroke-linejoin="round"/>
<path d="M1008.34 297.553H1038.44" stroke="#25252D" stroke-width="3" stroke-miterlimit="10" stroke-linecap="round" stroke-linejoin="round"/>
<path d="M932.891 297.553H977.242" stroke="#25252D" stroke-width="3" stroke-miterlimit="10" stroke-linecap="round" stroke-linejoin="round"/>
<path d="M943.056 312.005H1048.51" stroke="#25252D" stroke-width="3" stroke-miterlimit="10" stroke-linecap="round" stroke-linejoin="round"/>
<path d="M953.023 326.457H1057.37" stroke="#25252D" stroke-width="3" stroke-miterlimit="10" stroke-linecap="round" stroke-linejoin="round"/>
<path d="M963.687 340.908H1068.44" stroke="#25252D" stroke-width="3" stroke-miterlimit="10" stroke-linecap="round" stroke-linejoin="round"/>
<path d="M972.957 355.36H1077.21" stroke="#25252D" stroke-width="3" stroke-miterlimit="10" stroke-linecap="round" stroke-linejoin="round"/>
<path d="M982.923 369.812H1087.67" stroke="#25252D" stroke-width="3" stroke-miterlimit="10" stroke-linecap="round" stroke-linejoin="round"/>
<path d="M912.06 336.921C904.286 336.921 898.007 343.2 898.007 350.974V384.263H926.113V350.974C926.113 343.2 919.834 336.921 912.06 336.921Z" stroke="#25252D" stroke-width="3" stroke-miterlimit="10" stroke-linecap="round" stroke-linejoin="round"/>
<path d="M897.907 357.054H909.269" stroke="#25252D" stroke-width="3" stroke-miterlimit="10" stroke-linecap="round" stroke-linejoin="round"/>
<path d="M897.907 372.702H909.269" stroke="#25252D" stroke-width="3" stroke-miterlimit="10" stroke-linecap="round" stroke-linejoin="round"/>
<path d="M988.306 312.005L977.243 295.46V253.301H989.203" stroke="#25252D" stroke-width="3" stroke-miterlimit="10" stroke-linecap="round" stroke-linejoin="round"/>
<path d="M1008.34 253.301H989.202V312.005H1008.34V253.301Z" stroke="#25252D" stroke-width="3" stroke-miterlimit="10" stroke-linecap="round" stroke-linejoin="round"/>
<path d="M1014.82 253.301H970.765" stroke="#25252D" stroke-width="3" stroke-miterlimit="10" stroke-linecap="round" stroke-linejoin="round"/>
<path d="M912.06 327.354C917.179 327.354 921.328 323.204 921.328 318.085C921.328 312.965 917.179 308.815 912.06 308.815C906.941 308.815 902.791 312.965 902.791 318.085C902.791 323.204 906.941 327.354 912.06 327.354Z" stroke="#25252D" stroke-width="3" stroke-miterlimit="10" stroke-linecap="round" stroke-linejoin="round"/>
<path d="M912.059 308.815V327.254" stroke="#25252D" stroke-width="3" stroke-miterlimit="10" stroke-linecap="round" stroke-linejoin="round"/>
<path d="M921.229 318.085H902.791" stroke="#25252D" stroke-width="3" stroke-miterlimit="10" stroke-linecap="round" stroke-linejoin="round"/>
<path d="M875.98 245.526V295.261" stroke="#25252D" stroke-width="3" stroke-miterlimit="10" stroke-linecap="round" stroke-linejoin="round"/>
<path d="M857.143 295.261V275.527L843.289 267.254C839.103 264.762 836.512 260.178 836.512 255.294V245.526" stroke="#25252D" stroke-width="3" stroke-miterlimit="10" stroke-linecap="round" stroke-linejoin="round"/>
<path d="M857.143 245.526V263.168L848.372 258.384C846.976 257.586 846.079 256.191 846.079 254.596V245.526" stroke="#25252D" stroke-width="3" stroke-miterlimit="10" stroke-linecap="round" stroke-linejoin="round"/>
<path d="M569.104 141.474L681.229 49.282L805.016 153.135" stroke="#25252D" stroke-width="3" stroke-miterlimit="10" stroke-linecap="round" stroke-linejoin="round"/>
<path d="M867.608 164.298L830.731 127.421L781.097 177.155L772.724 168.783L742.226 199.281" stroke="#25252D" stroke-width="3" stroke-miterlimit="10" stroke-linecap="round" stroke-linejoin="round"/>
<path d="M435.748 180.743L521.462 93.8333L585.349 157.72" stroke="#25252D" stroke-width="3" stroke-miterlimit="10" stroke-linecap="round" stroke-linejoin="round"/>
<path d="M766.047 284.597L773.822 292.271V283.5" stroke="#25252D" stroke-width="3" stroke-miterlimit="10" stroke-linecap="round" stroke-linejoin="round"/>
<path d="M781.993 284.596L774.319 292.27" stroke="#25252D" stroke-width="3" stroke-miterlimit="10" stroke-linecap="round" stroke-linejoin="round"/>
<path d="M866.611 374.596L874.286 382.27V373.5" stroke="#25252D" stroke-width="3" stroke-miterlimit="10" stroke-linecap="round" stroke-linejoin="round"/>
<path d="M882.458 374.596L874.784 382.27" stroke="#25252D" stroke-width="3" stroke-miterlimit="10" stroke-linecap="round" stroke-linejoin="round"/>
<path d="M323.622 241.839L331.395 249.514V240.842" stroke="#25252D" stroke-width="3" stroke-miterlimit="10" stroke-linecap="round" stroke-linejoin="round"/>
<path d="M339.568 241.84L331.894 249.514" stroke="#25252D" stroke-width="3" stroke-miterlimit="10" stroke-linecap="round" stroke-linejoin="round"/>
<path d="M160.964 323.168L168.638 330.842V322.071" stroke="#25252D" stroke-width="3" stroke-miterlimit="10" stroke-linecap="round" stroke-linejoin="round"/>
<path d="M176.811 323.167L169.136 330.842" stroke="#25252D" stroke-width="3" stroke-miterlimit="10" stroke-linecap="round" stroke-linejoin="round"/>
<path d="M386.412 246.324V199.68C386.412 192.703 392.093 187.022 399.07 187.022H460.266C462.16 187.022 463.954 186.225 465.349 184.929L487.974 162.205C490.266 159.913 493.456 158.617 496.745 158.617H506.113" stroke="#25252D" stroke-width="3" stroke-miterlimit="10" stroke-linecap="round" stroke-linejoin="round"/>
<path d="M414.518 245.228V199.58C414.518 196.291 417.209 193.6 420.498 193.6H469.934C474.219 193.6 478.405 191.906 481.495 188.916L506.213 164.597" stroke="#25252D" stroke-width="3" stroke-miterlimit="10" stroke-linecap="round" stroke-linejoin="round"/>
<path d="M493.056 166.79L494.253 165.594" stroke="#25252D" stroke-width="3" stroke-miterlimit="10" stroke-linecap="round" stroke-linejoin="round"/>
<path d="M480.398 179.248L487.675 172.172" stroke="#25252D" stroke-width="3" stroke-miterlimit="10" stroke-linecap="round" stroke-linejoin="round"/>
<path d="M506.113 164.597V156.524C506.113 150.843 501.528 146.258 495.847 146.258C490.166 146.258 485.582 150.843 485.582 156.524V164.597" stroke="#25252D" stroke-width="3" stroke-miterlimit="10" stroke-linecap="round" stroke-linejoin="round"/>
<path d="M753.887 153.733V145.162C753.887 139.481 749.302 134.896 743.621 134.896C737.94 134.896 733.356 139.481 733.356 145.162V157.222L754.286 178.152" stroke="#25252D" stroke-width="3" stroke-miterlimit="10" stroke-linecap="round" stroke-linejoin="round"/>
<path d="M627.01 94.3316C625.216 99.315 630.299 105.793 635.283 107.388C650.631 112.371 654.02 92.1389 673.953 111.674C699.369 136.59 701.761 99.315 712.026 94.8299C714.717 93.6339 728.87 94.7303 726.279 87.4546" stroke="#25252D" stroke-width="3" stroke-miterlimit="10" stroke-linecap="round" stroke-linejoin="round"/>
<path d="M501.628 114.365C500.432 117.355 503.322 120.744 506.512 121.342C512.89 122.538 518.771 116.258 525.15 117.155C529.236 117.753 540.698 127.122 543.688 119.248" stroke="#25252D" stroke-width="3" stroke-miterlimit="10" stroke-linecap="round" stroke-linejoin="round"/>
<path d="M797.939 162.803C805.016 171.674 815.78 161.507 821.462 155.727C833.223 143.866 847.675 161.707 851.961 149.747" stroke="#25252D" stroke-width="3" stroke-miterlimit="10" stroke-linecap="round" stroke-linejoin="round"/>
<path d="M257.841 211.042V251.706" stroke="#25252D" stroke-width="3" stroke-miterlimit="10" stroke-linecap="round" stroke-linejoin="round"/>
<path d="M272.791 211.042V220.71L279.469 217.62C284.253 215.328 285.249 223.7 280.465 225.992L272.791 229.68V251.806" stroke="#25252D" stroke-width="3" stroke-miterlimit="10" stroke-linecap="round" stroke-linejoin="round"/>
<path d="M1096.94 384.263C1108.11 384.762 1119.47 379.479 1124.55 368.416C1128.44 368.815 1131.63 365.725 1131.63 361.938C1131.63 358.25 1128.54 355.26 1124.75 355.46C1116.18 335.626 1087.38 333.832 1075.12 349.978" stroke="#25252D" stroke-width="3" stroke-linecap="round" stroke-linejoin="round"/>
<path d="M1115.08 353.965C1110.9 349.878 1104.92 347.287 1098.34 347.287C1094.75 347.287 1091.26 348.084 1088.17 349.48" stroke="#25252D" stroke-width="3" stroke-linecap="round" stroke-linejoin="round"/>
<path d="M1109.1 132.405C1109.1 127.72 1105.12 123.833 1100.33 124.132C1088.37 96.3251 1044.92 96.2254 1032.86 124.132C1027.97 123.833 1024.09 127.72 1024.09 132.405C1024.09 137.288 1028.27 141.175 1033.16 140.677C1045.51 167.687 1087.67 167.687 1100.03 140.677C1104.92 141.175 1109.1 137.288 1109.1 132.405Z" stroke="#25252D" stroke-width="3" stroke-linejoin="round"/>
<path d="M1084.29 119.049C1077.51 112.372 1067.04 110.976 1058.77 114.764" stroke="#25252D" stroke-width="3" stroke-linecap="round" stroke-linejoin="round"/>
<path d="M1078.9 207.554H1054.09L1045.41 181.74H1087.67L1078.9 207.554Z" stroke="#25252D" stroke-width="3" stroke-miterlimit="10" stroke-linecap="round" stroke-linejoin="round"/>
<path d="M1048.8 191.806C1048.8 191.806 1057.87 198.983 1066.54 190.809" stroke="#25252D" stroke-width="3" stroke-miterlimit="10" stroke-linecap="round" stroke-linejoin="round"/>
<path d="M1084.29 191.806C1084.29 191.806 1075.22 198.983 1066.54 190.809" stroke="#25252D" stroke-width="3" stroke-miterlimit="10" stroke-linecap="round" stroke-linejoin="round"/>
<path d="M1050.2 181.74L1042.32 152.637" stroke="#25252D" stroke-width="3" stroke-miterlimit="10" stroke-linecap="round" stroke-linejoin="round"/>
<path d="M1083.69 181.74L1091.66 152.637" stroke="#25252D" stroke-width="3" stroke-miterlimit="10" stroke-linecap="round" stroke-linejoin="round"/>
<path d="M165.648 84.5642C164.95 80.8765 161.262 78.3848 157.475 79.3815C143.821 59.3484 109.734 65.8268 104.452 89.5476C100.565 90.0459 98.0731 93.7336 98.7707 97.4213C99.4684 101.209 103.355 103.601 107.143 102.504C120.897 121.84 153.987 115.461 159.668 92.4379C163.654 92.0392 166.345 88.3516 165.648 84.5642Z" stroke="#25252D" stroke-width="3" stroke-linejoin="round"/>
<path d="M125.283 54.9631L122.193 38.6177" stroke="#25252D" stroke-width="3" stroke-miterlimit="10" stroke-linecap="round" stroke-linejoin="round"/>
<path d="M142.126 142.77L139.037 126.424" stroke="#25252D" stroke-width="3" stroke-miterlimit="10" stroke-linecap="round" stroke-linejoin="round"/>
<path d="M95.1827 65.6276L88.3054 60.9431" stroke="#25252D" stroke-width="3" stroke-miterlimit="10" stroke-linecap="round" stroke-linejoin="round"/>
<path d="M176.013 120.444L169.136 115.76" stroke="#25252D" stroke-width="3" stroke-miterlimit="10" stroke-linecap="round" stroke-linejoin="round"/>
<path d="M104.452 125.727L99.2692 132.305" stroke="#25252D" stroke-width="3" stroke-miterlimit="10" stroke-linecap="round" stroke-linejoin="round"/>
<path d="M165.05 49.0828L159.867 55.6608" stroke="#25252D" stroke-width="3" stroke-miterlimit="10" stroke-linecap="round" stroke-linejoin="round"/>
<path d="M177.608 81.9728L194.053 78.7834" stroke="#25252D" stroke-width="3" stroke-miterlimit="10" stroke-linecap="round" stroke-linejoin="round"/>
<path d="M70.3655 102.604L86.7111 99.4148" stroke="#25252D" stroke-width="3" stroke-miterlimit="10" stroke-linecap="round" stroke-linejoin="round"/>
<path d="M351.628 183.833L372.26 131.707L390.1 183.833" stroke="#25252D" stroke-width="3" stroke-miterlimit="10" stroke-linecap="round" stroke-linejoin="round"/>
<path d="M381.828 155.427L392.89 129.713L400.963 147.952" stroke="#25252D" stroke-width="3" stroke-miterlimit="10" stroke-linecap="round" stroke-linejoin="round"/>
<path d="M399.966 141.973L412.425 118.252L419.701 131.707" stroke="#25252D" stroke-width="3" stroke-miterlimit="10" stroke-linecap="round" stroke-linejoin="round"/>
<path d="M427.475 136.989L437.242 121.242L447.01 138.982" stroke="#25252D" stroke-width="3" stroke-miterlimit="10" stroke-linecap="round" stroke-linejoin="round"/>
<path d="M443.821 144.963L455.881 123.036L465.15 142.969" stroke="#25252D" stroke-width="3" stroke-miterlimit="10" stroke-linecap="round" stroke-linejoin="round"/>
<path d="M725.283 340.808L740.233 307.42L766.046 374.994" stroke="#25252D" stroke-width="3" stroke-miterlimit="10" stroke-linecap="round" stroke-linejoin="round"/>
<path d="M760.764 360.543L773.821 326.058L789.569 374.995" stroke="#25252D" stroke-width="3" stroke-miterlimit="10" stroke-linecap="round" stroke-linejoin="round"/>
<path d="M845.681 361.739C843.887 358.251 828.937 316.39 828.937 316.39L811.196 375.094" stroke="#25252D" stroke-width="3" stroke-miterlimit="10" stroke-linecap="round" stroke-linejoin="round"/>
<path d="M789.567 352.669L801.129 317.786L812.592 349.58" stroke="#25252D" stroke-width="3" stroke-miterlimit="10" stroke-linecap="round" stroke-linejoin="round"/>
<path d="M728.671 204.863L714.219 167.786L699.867 199.281" stroke="#25252D" stroke-width="3" stroke-miterlimit="10" stroke-linecap="round" stroke-linejoin="round"/>
<path d="M677.542 193.002L691.296 164.497L703.754 190.012" stroke="#25252D" stroke-width="3" stroke-miterlimit="10" stroke-linecap="round" stroke-linejoin="round"/>
<path d="M31.0964 211.042C36.5782 196.291 47.1429 200.278 50.432 200.477C60.7974 201.075 65.9801 188.318 72.9569 182.936C84.917 173.766 89.8007 185.726 93.4884 187.72C103.056 193.102 110.93 178.152 119.801 197.686C126.877 213.035 133.355 195.693 138.837 211.042H31.0964V211.042Z" stroke="#25252D" stroke-width="3" stroke-miterlimit="10" stroke-linecap="round" stroke-linejoin="round"/>
<path d="M286.844 71.4082C295.714 53.1691 302.093 69.2155 315.648 56.0595C334.086 38.0197 339.07 51.2754 349.634 45.395C357.608 41.0097 369.369 21.8735 381.03 30.0463C388.306 35.1293 387.309 52.7704 408.239 43.1027C409.236 42.6044 410.332 42.3054 411.428 42.2057C419.103 41.7073 418.804 52.1724 423.688 56.7571C428.571 61.4415 436.744 58.5511 443.322 60.1458C448.604 61.4415 452.89 66.0262 453.787 71.4082H286.844Z" stroke="#25252D" stroke-width="3" stroke-miterlimit="10" stroke-linecap="round" stroke-linejoin="round"/>
<path d="M883.853 78.5842H996.58C990.002 59.1491 978.041 75.5942 971.961 65.6274C956.313 40.3119 948.838 75.7935 937.276 67.1224C925.016 57.9531 914.053 69.1158 903.587 71.9065C894.816 74.0992 886.145 66.6241 883.853 78.5842Z" stroke="#25252D" stroke-width="3" stroke-miterlimit="10" stroke-linecap="round" stroke-linejoin="round"/>
<path d="M1155.85 240.843C1159.53 244.73 1154.65 247.52 1170.7 246.424C1175.68 246.125 1177.28 250.51 1180.27 254.497H1135.61C1138.9 250.211 1147.87 232.271 1155.85 240.843Z" stroke="#25252D" stroke-width="3" stroke-miterlimit="10" stroke-linecap="round" stroke-linejoin="round"/>
<path d="M219.568 128.019C221.761 125.029 224.751 121.341 228.439 121.74C236.711 122.737 234.518 120.046 239.003 118.451C244.186 116.557 242.99 128.019 242.99 128.019H219.568V128.019Z" stroke="#25252D" stroke-width="3" stroke-miterlimit="10" stroke-linecap="round" stroke-linejoin="round"/>
<path d="M90.8971 332.935V331.34C90.8971 323.865 96.9768 317.786 104.452 317.786H111.728C111.728 310.311 117.807 304.231 125.282 304.231H129.369V303.035C129.369 295.56 135.449 289.48 142.924 289.48" stroke="#25252D" stroke-width="3" stroke-miterlimit="10" stroke-linecap="round" stroke-linejoin="round"/>
<path d="M216.479 253.101V250.51C216.479 243.633 222.06 238.052 228.937 238.052V235.859C228.937 228.982 234.518 223.401 241.395 223.401H244.685" stroke="#25252D" stroke-width="3" stroke-miterlimit="10" stroke-linecap="round" stroke-linejoin="round"/>
<path d="M306.08 174.664C314.053 174.664 320.532 181.142 320.532 189.116V191.906H323.422C326.512 191.906 329.302 192.803 331.595 194.398" stroke="#25252D" stroke-width="3" stroke-miterlimit="10" stroke-linecap="round" stroke-linejoin="round"/>
<path d="M171.229 258.085L190.166 194.796L204.817 247.121" stroke="#25252D" stroke-width="3" stroke-miterlimit="10" stroke-linecap="round" stroke-linejoin="round"/>
<path d="M201.927 235.56L211.993 208.351L220.066 229.879" stroke="#25252D" stroke-width="3" stroke-miterlimit="10" stroke-linecap="round" stroke-linejoin="round"/>
<path d="M370.764 261.573C370.764 257.985 373.654 255.095 377.242 255.095C377.541 255.095 377.84 255.095 378.239 255.195C378.837 250.211 383.023 246.324 388.206 246.324C390 246.324 391.794 246.822 393.189 247.72C394.584 243.633 398.471 240.643 403.056 240.643C407.242 240.643 410.83 243.135 412.525 246.623C413.82 245.726 415.415 245.228 417.109 245.228C420.996 245.228 424.285 248.019 425.083 251.607C425.182 251.607 425.182 251.607 425.282 251.607C430.764 251.607 435.249 256.092 435.249 261.573" stroke="#25252D" stroke-width="3" stroke-miterlimit="10" stroke-linecap="round" stroke-linejoin="round"/>
<path d="M394.386 208.052V219.414" stroke="#25252D" stroke-width="3" stroke-miterlimit="10" stroke-linecap="round" stroke-linejoin="round"/>
<path d="M405.548 212.138V231.175" stroke="#25252D" stroke-width="3" stroke-miterlimit="10" stroke-linecap="round" stroke-linejoin="round"/>
<path d="M405.548 200.278V204.464" stroke="#25252D" stroke-width="3" stroke-miterlimit="10" stroke-linecap="round" stroke-linejoin="round"/>
<path d="M423.488 270.244H456.18" stroke="#25252D" stroke-width="3" stroke-miterlimit="10" stroke-linecap="round" stroke-linejoin="round"/>
<path d="M434.154 257.088H456.18" stroke="#25252D" stroke-width="3" stroke-miterlimit="10" stroke-linecap="round" stroke-linejoin="round"/>
<path d="M347.641 257.088H371.96" stroke="#25252D" stroke-width="3" stroke-miterlimit="10" stroke-linecap="round" stroke-linejoin="round"/>
<path d="M635.183 314.197V333.234" stroke="#25252D" stroke-width="3" stroke-miterlimit="10" stroke-linecap="round" stroke-linejoin="round"/>
<path d="M660.299 320.178V351.872" stroke="#25252D" stroke-width="3" stroke-miterlimit="10" stroke-linecap="round" stroke-linejoin="round"/>
<path d="M647.741 360.942V323.367" stroke="#25252D" stroke-width="3" stroke-miterlimit="10" stroke-linecap="round" stroke-linejoin="round"/>
<path d="M647.741 311.606V305.626" stroke="#25252D" stroke-width="3" stroke-miterlimit="10" stroke-linecap="round" stroke-linejoin="round"/>
<path d="M735.349 151.541H748.605C750.199 151.541 751.794 152.238 752.99 153.335L766.246 166.59" stroke="#25252D" stroke-width="3" stroke-miterlimit="10" stroke-linecap="round" stroke-linejoin="round"/>
<path d="M745.415 159.115L747.11 160.81" stroke="#25252D" stroke-width="3" stroke-miterlimit="10" stroke-linecap="round" stroke-linejoin="round"/>
<path d="M757.774 166.89L761.662 170.777" stroke="#25252D" stroke-width="3" stroke-miterlimit="10" stroke-linecap="round" stroke-linejoin="round"/>
<path d="M696.578 211.341H741.229C746.511 211.341 750.797 215.627 750.797 220.909V223.999H765.648C770.93 223.999 775.216 228.285 775.216 233.567V235.56H786.378" stroke="#25252D" stroke-width="3" stroke-miterlimit="10" stroke-linecap="round" stroke-linejoin="round"/>
<path d="M766.245 216.922V216.623C766.245 209.846 771.726 204.364 778.504 204.364H782.79V202.271C782.79 195.494 788.272 190.012 795.05 190.012H809.004" stroke="#25252D" stroke-width="3" stroke-miterlimit="10" stroke-linecap="round" stroke-linejoin="round"/>
<path d="M804.319 255.095H807.907C812.99 255.095 817.077 259.181 817.077 264.264V268.949H820.465C825.548 268.949 829.635 273.035 829.635 278.118V280.61" stroke="#25252D" stroke-width="3" stroke-miterlimit="10" stroke-linecap="round" stroke-linejoin="round"/>
<path d="M936.08 202.471H948.14C954.718 202.471 960 207.753 960 214.331V216.225H975.847C982.425 216.225 987.708 221.507 987.708 228.085V236.258H1011.53C1018.11 236.258 1023.39 241.54 1023.39 248.118V253.201H1031.16C1037.74 253.201 1043.02 258.483 1043.02 265.061V278.218H1058.57C1065.15 278.218 1070.43 283.5 1070.43 290.078V295.36H1070.83C1077.41 295.36 1082.69 300.643 1082.69 307.221V318.184C1089.27 318.184 1094.55 323.466 1094.55 330.044V331.639" stroke="#25252D" stroke-width="3" stroke-miterlimit="10" stroke-linecap="round" stroke-linejoin="round"/>
<path d="M1058.17 308.417H1058.67C1062.16 308.417 1065.05 311.207 1065.05 314.795V315.593" stroke="#25252D" stroke-width="3" stroke-miterlimit="10" stroke-linecap="round" stroke-linejoin="round"/>
<path d="M900.199 260.975V260.477C900.199 256.988 902.99 254.098 906.578 254.098H907.376" stroke="#25252D" stroke-width="3" stroke-miterlimit="10" stroke-linecap="round" stroke-linejoin="round"/>
<path d="M298.704 216.324H299.203C302.691 216.324 305.582 219.115 305.582 222.703V223.5" stroke="#25252D" stroke-width="3" stroke-miterlimit="10" stroke-linecap="round" stroke-linejoin="round"/>
<path d="M121.196 324.563V324.064C121.196 320.576 123.987 317.686 127.575 317.686H128.372" stroke="#25252D" stroke-width="3" stroke-miterlimit="10" stroke-linecap="round" stroke-linejoin="round"/>
<path d="M590.032 149.747H612.956C617.74 149.747 621.627 153.634 621.627 158.418H641.162C648.239 158.418 654.019 164.198 654.019 171.275V175.66" stroke="#25252D" stroke-width="3" stroke-miterlimit="10" stroke-linecap="round" stroke-linejoin="round"/>
<path d="M309.768 208.052C309.768 183.833 290.133 164.198 265.914 164.198C241.695 164.198 222.06 183.833 222.06 208.052H309.768Z" stroke="#25252D" stroke-width="3" stroke-miterlimit="10" stroke-linecap="round" stroke-linejoin="round"/>
<path d="M235.016 208.052C235.016 191.009 248.771 177.255 265.814 177.255C282.857 177.255 296.612 191.009 296.612 208.052" stroke="#25252D" stroke-width="3" stroke-miterlimit="10" stroke-linecap="round" stroke-linejoin="round"/>
<path d="M265.913 177.255V208.052" stroke="#25252D" stroke-width="3" stroke-miterlimit="10" stroke-linecap="round" stroke-linejoin="round"/>
<path d="M287.641 186.225L265.914 208.052L244.186 186.424" stroke="#25252D" stroke-width="3" stroke-miterlimit="10" stroke-linecap="round" stroke-linejoin="round"/>
<path d="M449.402 280.61C449.402 309.314 472.625 332.536 501.329 332.536C530.033 332.536 553.256 309.314 553.256 280.61H449.402Z" stroke="#25252D" stroke-width="3" stroke-miterlimit="10" stroke-linecap="round" stroke-linejoin="round"/>
<path d="M537.807 280.61C537.807 300.743 521.462 317.088 501.329 317.088C481.196 317.088 464.851 300.743 464.851 280.61" stroke="#25252D" stroke-width="3" stroke-miterlimit="10" stroke-linecap="round" stroke-linejoin="round"/>
<path d="M501.329 317.088V280.61" stroke="#25252D" stroke-width="3" stroke-miterlimit="10" stroke-linecap="round" stroke-linejoin="round"/>
<path d="M475.614 306.424L501.329 280.61L526.944 306.224" stroke="#25252D" stroke-width="3" stroke-miterlimit="10" stroke-linecap="round" stroke-linejoin="round"/>
<path d="M940.168 244.43C940.168 204.464 907.776 172.072 867.809 172.072C827.841 172.072 795.449 204.464 795.449 244.43H940.168Z" stroke="#25252D" stroke-width="3" stroke-miterlimit="10" stroke-linecap="round" stroke-linejoin="round"/>
<path d="M817.077 244.431C817.077 216.424 839.801 193.7 867.807 193.7C895.814 193.7 918.538 216.424 918.538 244.431" stroke="#25252D" stroke-width="3" stroke-miterlimit="10" stroke-linecap="round" stroke-linejoin="round"/>
<path d="M867.808 193.6V244.43" stroke="#25252D" stroke-width="3" stroke-miterlimit="10" stroke-linecap="round" stroke-linejoin="round"/>
<path d="M903.787 208.451L867.807 244.431L832.126 208.75" stroke="#25252D" stroke-width="3" stroke-miterlimit="10" stroke-linecap="round" stroke-linejoin="round"/>
<path d="M791.86 65.3284C792.657 61.8401 790.465 58.3517 786.876 57.7537C782.89 35.3286 751.195 27.8535 737.641 46.1923C734.152 45.096 730.564 47.2886 729.767 50.6773C728.97 54.2653 731.362 57.7537 734.95 58.252C739.335 80.0792 770.132 87.2552 783.787 69.7138C787.275 71.0095 790.963 68.9164 791.86 65.3284Z" stroke="#25252D" stroke-width="3" stroke-linejoin="round"/>
<path d="M753.29 78.0859C736.248 94.1322 755.682 100.312 761.462 92.8366C763.954 89.6472 762.16 85.1623 762.459 81.1756" stroke="#25252D" stroke-width="3" stroke-miterlimit="10" stroke-linecap="round" stroke-linejoin="round"/>
<path d="M750.1 77.1889C750.1 77.1889 732.857 72.3054 717.508 79.6805" stroke="#25252D" stroke-width="3" stroke-miterlimit="10" stroke-linecap="round" stroke-linejoin="round"/>
<path d="M763.455 80.9762C763.455 80.9762 773.023 83.5676 787.475 78.5842C795.249 75.8932 798.837 87.7536 791.163 89.9463C775.914 94.4313 763.356 87.9529 763.356 87.9529" stroke="#25252D" stroke-width="3" stroke-miterlimit="10" stroke-linecap="round" stroke-linejoin="round"/>
<path d="M759.069 94.9297C759.069 94.9297 767.542 103.501 765.648 118.053" stroke="#25252D" stroke-width="3" stroke-miterlimit="10" stroke-linecap="round" stroke-linejoin="round"/>
<path d="M755.482 96.5242C755.482 96.5242 757.077 104.398 754.585 109.78" stroke="#25252D" stroke-width="3" stroke-miterlimit="10" stroke-linecap="round" stroke-linejoin="round"/>
<path d="M747.209 83.9662C747.209 83.9662 734.751 83.6672 730.366 89.5475" stroke="#25252D" stroke-width="3" stroke-miterlimit="10" stroke-linecap="round" stroke-linejoin="round"/>
<path d="M745.415 91.1423C745.415 91.1423 740.831 93.4347 739.835 97.9196" stroke="#25252D" stroke-width="3" stroke-miterlimit="10" stroke-linecap="round" stroke-linejoin="round"/>
<path d="M787.475 78.5841L789.967 74.5974" stroke="#25252D" stroke-width="3" stroke-miterlimit="10" stroke-linecap="round" stroke-linejoin="round"/>
<path d="M793.356 79.6805L797.94 76.5908" stroke="#25252D" stroke-width="3" stroke-miterlimit="10" stroke-linecap="round" stroke-linejoin="round"/>
<path d="M795.149 82.6704H799.237" stroke="#25252D" stroke-width="3" stroke-miterlimit="10" stroke-linecap="round" stroke-linejoin="round"/>
<path d="M795.149 86.1587L797.94 86.7567" stroke="#25252D" stroke-width="3" stroke-miterlimit="10" stroke-linecap="round" stroke-linejoin="round"/>
<path d="M759.867 40.8103C762.558 46.4913 771.827 50.3783 778.006 49.3817C776.91 50.2787 774.119 59.7471 779.401 63.1357C772.724 63.1357 768.239 66.5244 768.438 73.3018C764.152 70.2121 755.282 69.3151 751.395 71.0095C750.598 64.1324 747.209 61.7404 740.432 60.5444C743.92 58.0527 744.119 50.8767 743.621 46.7903C749.003 48.385 754.385 46.3917 759.867 40.8103Z" stroke="#25252D" stroke-width="3" stroke-miterlimit="10" stroke-linecap="round" stroke-linejoin="round"/>
<path d="M748.804 55.7602C750.299 51.9728 756.778 52.2718 756.08 57.8533" stroke="#25252D" stroke-width="3" stroke-miterlimit="10" stroke-linecap="round" stroke-linejoin="round"/>
<path d="M769.835 60.3451C770.134 56.2589 764.253 53.6676 762.359 58.9498" stroke="#25252D" stroke-width="3" stroke-miterlimit="10" stroke-linecap="round" stroke-linejoin="round"/>
<path d="M663.887 38.0197C673.555 22.7706 686.511 36.8237 696.678 24.2656L687.608 2.1394C677.442 14.6975 664.485 0.644393 654.817 15.8935" stroke="#25252D" stroke-width="3" stroke-miterlimit="10" stroke-linecap="round" stroke-linejoin="round"/>
<path d="M652.226 11.0098L670.166 54.5643" stroke="#25252D" stroke-width="3" stroke-miterlimit="10" stroke-linecap="round" stroke-linejoin="round"/>
<path d="M120.698 89.8466C117.11 75.6939 129.07 79.2819 130.365 85.9596" stroke="#25252D" stroke-width="3" stroke-miterlimit="10" stroke-linecap="round" stroke-linejoin="round"/>
<path d="M140.532 82.7701C136.944 68.6175 148.904 72.2055 150.199 78.8831" stroke="#25252D" stroke-width="3" stroke-miterlimit="10" stroke-linecap="round" stroke-linejoin="round"/>
</g>
<defs>
<clipPath id="clip0">
<rect width="1200" height="448" fill="white"/>
</clipPath>
</defs>
</svg>