<svg class="hidden md:block absolute" style="top: 16px; right: 80px;" height="48" viewBox="0 0 53 48" width="53" xmlns="http://www.w3.org/2000/svg" xmlns:xlink="http://www.w3.org/1999/xlink"><mask id="a" fill="#fff"><path d="m.17475817.27413234h37.42660033v12.19582716h-37.42660033z" fill="#fff" fill-rule="evenodd"></path></mask><mask id="b" fill="#fff"><path d="m.25128979.46100011h28.61193941v4.53899989h-28.61193941z" fill="#fff" fill-rule="evenodd"></path></mask><g fill="none" fill-rule="evenodd" transform="matrix(.98768834 .15643447 -.15643447 .98768834 3.295622 -6.242316)"><path d="m37.8310122.7109098c-7.0889903 2.62360682-37.83009396 14.1901706-37.30590291 21.5249228.57675616.5746187 1.46671283.5287946 2.04857949.0007274 5.08786547-4.8828036 11.46941692-8.0424787 17.72685632-11.1606939 5.925257-2.92764558 12.0293814-5.52506725 18.2546977-7.74789577 1.6901145-.45896753.9702644-3.1109416-.7242306-2.61706053" fill="#fdf767"></path><g fill="#fdf767"><path d="m36.1149849.27596111c-9.9724906.81322222-20.0969811 1.8655-29.17969811 6.4155-1.91720754 1.59683333-7.42003773 1.937-6.69516981 5.06638889.42086793.7222222 1.28626415.8890556 1.99464151.5279444 6.17607547-3.1799444 12.57656601-6.2024444 19.47392451-7.34355551 5.0489812-1.16205556 10.5812076-.67816667 15.4631321-2.09805556.9363774-.87388889.2344528-2.63466666-1.0568302-2.56822222" mask="url(#a)" transform="translate(14.861143 17.269316)" fill="#fdf767"></path><path d="m7.8452975 3.88864286c-.0986.015-.196475.02785714-.295075.04071428.0986-.01357143.196475-.02714285.295075-.04071428m7.90105-3.39c-2.059-.30571429-21.7181 1.25571428-13.49515 4.50142857 8.502075-2.69642857 17.80745-.78071429 26.225425-1.41714286 2.799225-4.28214286-10.4429-2.66-12.730275-3.08428571" mask="url(#b)" transform="translate(17.185421 43.619176)" fill="#fdf767"></path></g></g></svg>